<svg width="52" height="54" viewBox="0 0 52 54" fill="none" xmlns="http://www.w3.org/2000/svg">
<path d="M41.1667 33.75H36.8333V29.25H41.1667M41.1667 42.75H36.8333V38.25H41.1667M28.1667 15.75H23.8333V11.25H28.1667M28.1667 24.75H23.8333V20.25H28.1667M28.1667 33.75H23.8333V29.25H28.1667M28.1667 42.75H23.8333V38.25H28.1667M15.1667 24.75H10.8333V20.25H15.1667M15.1667 33.75H10.8333V29.25H15.1667M15.1667 42.75H10.8333V38.25H15.1667M32.5 24.75V11.25L26 4.5L19.5 11.25V15.75H6.5V47.25H45.5V24.75H32.5Z" fill="black"/>
</svg>
